<?xml version="1.0" encoding="UTF-8" standalone="no"?>
<svg version="1.1" xml:space="preserve" xmlns="http://www.w3.org/2000/svg" xmlns:svg="http://www.w3.org/2000/svg" viewBox="0 0 1000 1000">
	<g transform="matrix(6.6353887,0,0,6.6391941,2.3458447,134.84432)">
		<path fill="#d93600" d="M 146.34403,17.5 C 144.62028,10.8 139.5448,5.5 133.12863,3.7 121.54121,0.4 74.904235,0.4 74.904235,0.4 c 0,0 -46.63697,0.1 -58.22439,3.4 C 10.263672,5.6 5.1881903,10.9 3.4644416,17.6 0.39999998,29.7 0.39999998,55 0.39999998,55 c 0,0 0,25.3 3.16020522,37.5 1.7237487,6.7 6.7992298,12 13.2154048,13.8 11.587419,3.3 58.224389,3.3 58.224389,3.3 0,0 46.636971,0 58.224391,-3.3 6.41617,-1.8 11.49165,-7.1 13.2154,-13.8 C 149.6,80.4 149.6,55 149.6,55 c 0,0 -0.0957,-25.3 -3.25597,-37.5 z" />
		<path fill="#ffffff" d="m 69.449633,86.417562 c -0.557953,0 -1.109101,-0.26309 -1.388071,-0.26309 -0.830117,-0.526196 -1.38807,-1.572171 -1.38807,-2.355042 V 61.019133 L 42.239371,27.772726 c -0.557953,-0.78287 -0.830118,-1.835247 -0.278969,-2.881223 0.557953,-0.782869 1.388071,-1.309065 2.497157,-1.309065 h 61.081891 c 1.1091,0 1.94601,0.526196 2.49716,1.309065 0.55795,0.78287 0.27898,1.835263 -0.27897,2.618131 L 83.330325,61.019133 v 17.544035 c 0,1.045976 -0.557938,1.835263 -1.667041,2.355041 l -11.104565,5.236263 c -0.278967,0.26309 -0.551131,0.26309 -1.109086,0.26309 z" />
	</g>
</svg>
